<mxfile host="Electron" modified="2023-12-20T19:18:20.671Z" agent="Mozilla/5.0 (Windows NT 10.0; Win64; x64) AppleWebKit/537.36 (KHTML, like Gecko) draw.io/22.0.0 Chrome/114.0.5735.289 Electron/25.8.3 Safari/537.36" etag="XJ9MzMRJDQkyNj-EZWl4" version="22.0.0" type="device">
  <diagram name="Страница — 1" id="pRKMWyI25UUhj_dlE-dd">
    <mxGraphModel dx="8724" dy="4105" grid="1" gridSize="10" guides="1" tooltips="1" connect="1" arrows="1" fold="1" page="1" pageScale="1" pageWidth="827" pageHeight="1169" math="0" shadow="0">
      <root>
        <mxCell id="0" />
        <mxCell id="1" parent="0" />
        <mxCell id="8IsV2VG3H375RGorvR2R-7" value="&lt;p style=&quot;text-align: center; margin: 4px 0px 0px; text-decoration: underline;&quot;&gt;&lt;span style=&quot;font-size: 40px;&quot;&gt;&lt;b&gt;API&lt;/b&gt;&lt;/span&gt;&lt;/p&gt;" style="verticalAlign=top;align=left;overflow=fill;fontSize=12;fontFamily=Helvetica;html=1;whiteSpace=wrap;movable=0;resizable=0;rotatable=0;deletable=0;editable=0;locked=1;connectable=0;" parent="1" vertex="1">
          <mxGeometry x="-650" y="980" width="1450" height="2740" as="geometry" />
        </mxCell>
        <mxCell id="8IsV2VG3H375RGorvR2R-6" value="&lt;p style=&quot;text-align: center; margin: 4px 0px 0px; text-decoration: underline;&quot;&gt;&lt;b&gt;&lt;font style=&quot;font-size: 40px;&quot;&gt;Contracts&lt;/font&gt;&lt;/b&gt;&lt;/p&gt;&lt;hr&gt;&lt;p style=&quot;margin: 0px 0px 0px 8px; font-size: 21px;&quot;&gt;&lt;br&gt;&lt;/p&gt;" style="verticalAlign=top;align=left;overflow=fill;fontSize=12;fontFamily=Helvetica;html=1;whiteSpace=wrap;" parent="1" vertex="1">
          <mxGeometry x="-980" y="80" width="1900" height="650" as="geometry" />
        </mxCell>
        <mxCell id="Z-t9zzkmpwM4j7tZnlFa-3" value="&lt;font style=&quot;font-size: 16px;&quot;&gt;UserController&lt;/font&gt;" style="swimlane;fontStyle=1;align=center;verticalAlign=top;childLayout=stackLayout;horizontal=1;startSize=26;horizontalStack=0;resizeParent=1;resizeParentMax=0;resizeLast=0;collapsible=1;marginBottom=0;whiteSpace=wrap;html=1;" parent="1" vertex="1">
          <mxGeometry x="-600" y="1050" width="550" height="400" as="geometry" />
        </mxCell>
        <mxCell id="Z-t9zzkmpwM4j7tZnlFa-4" value="&lt;div&gt;&lt;span style=&quot;background-color: initial;&quot;&gt;&lt;font style=&quot;font-size: 26px;&quot;&gt;- _userService : UserService&lt;/font&gt;&lt;/span&gt;&lt;/div&gt;&lt;div&gt;&lt;font style=&quot;font-size: 26px;&quot;&gt;- _jwtService: JwtService&lt;/font&gt;&lt;span style=&quot;background-color: initial;&quot;&gt;&lt;font style=&quot;font-size: 26px;&quot;&gt;&lt;br&gt;&lt;/font&gt;&lt;/span&gt;&lt;/div&gt;" style="text;strokeColor=none;fillColor=none;align=left;verticalAlign=top;spacingLeft=4;spacingRight=4;overflow=hidden;rotatable=0;points=[[0,0.5],[1,0.5]];portConstraint=eastwest;whiteSpace=wrap;html=1;" parent="Z-t9zzkmpwM4j7tZnlFa-3" vertex="1">
          <mxGeometry y="26" width="550" height="124" as="geometry" />
        </mxCell>
        <mxCell id="Z-t9zzkmpwM4j7tZnlFa-5" value="" style="line;strokeWidth=1;fillColor=none;align=left;verticalAlign=middle;spacingTop=-1;spacingLeft=3;spacingRight=3;rotatable=0;labelPosition=right;points=[];portConstraint=eastwest;strokeColor=inherit;" parent="Z-t9zzkmpwM4j7tZnlFa-3" vertex="1">
          <mxGeometry y="150" width="550" height="8" as="geometry" />
        </mxCell>
        <mxCell id="Z-t9zzkmpwM4j7tZnlFa-6" value="&lt;font style=&quot;font-size: 26px;&quot;&gt;+UserController(service: UserService, jwtService : JwtService)&lt;br&gt;+Login(data : LoginData) :&amp;nbsp;ActionResult&amp;lt;JwtToken&amp;gt;&lt;br&gt;+Register(data : RegisterData) :&amp;nbsp;ActionResult&amp;lt;JwtToken&amp;gt;&lt;br&gt;+DeleteUser() : ActionResult&lt;/font&gt;" style="text;strokeColor=none;fillColor=none;align=left;verticalAlign=top;spacingLeft=4;spacingRight=4;overflow=hidden;rotatable=0;points=[[0,0.5],[1,0.5]];portConstraint=eastwest;whiteSpace=wrap;html=1;" parent="Z-t9zzkmpwM4j7tZnlFa-3" vertex="1">
          <mxGeometry y="158" width="550" height="242" as="geometry" />
        </mxCell>
        <mxCell id="Z-t9zzkmpwM4j7tZnlFa-11" value="&lt;font style=&quot;font-size: 16px;&quot;&gt;PlayerData&lt;/font&gt;" style="swimlane;fontStyle=1;align=center;verticalAlign=top;childLayout=stackLayout;horizontal=1;startSize=26;horizontalStack=0;resizeParent=1;resizeParentMax=0;resizeLast=0;collapsible=1;marginBottom=0;whiteSpace=wrap;html=1;" parent="1" vertex="1">
          <mxGeometry x="-490" y="240" width="430" height="158" as="geometry" />
        </mxCell>
        <mxCell id="Z-t9zzkmpwM4j7tZnlFa-12" value="&lt;div style=&quot;font-size: 26px;&quot;&gt;&lt;font style=&quot;font-size: 26px;&quot;&gt;+ Nick : string&lt;/font&gt;&lt;/div&gt;&lt;div style=&quot;font-size: 26px;&quot;&gt;&lt;font style=&quot;font-size: 26px;&quot;&gt;+ Time : decimal&lt;/font&gt;&lt;/div&gt;&lt;div style=&quot;font-size: 26px;&quot;&gt;&lt;span style=&quot;background-color: initial;&quot;&gt;&lt;font style=&quot;font-size: 26px;&quot;&gt;+ Orbs : int&lt;/font&gt;&lt;/span&gt;&lt;/div&gt;" style="text;strokeColor=none;fillColor=none;align=left;verticalAlign=top;spacingLeft=4;spacingRight=4;overflow=hidden;rotatable=0;points=[[0,0.5],[1,0.5]];portConstraint=eastwest;whiteSpace=wrap;html=1;" parent="Z-t9zzkmpwM4j7tZnlFa-11" vertex="1">
          <mxGeometry y="26" width="430" height="124" as="geometry" />
        </mxCell>
        <mxCell id="Z-t9zzkmpwM4j7tZnlFa-13" value="" style="line;strokeWidth=1;fillColor=none;align=left;verticalAlign=middle;spacingTop=-1;spacingLeft=3;spacingRight=3;rotatable=0;labelPosition=right;points=[];portConstraint=eastwest;strokeColor=inherit;" parent="Z-t9zzkmpwM4j7tZnlFa-11" vertex="1">
          <mxGeometry y="150" width="430" height="8" as="geometry" />
        </mxCell>
        <mxCell id="Z-t9zzkmpwM4j7tZnlFa-19" value="&lt;font style=&quot;font-size: 16px;&quot;&gt;LoginData&lt;/font&gt;" style="swimlane;fontStyle=1;align=center;verticalAlign=top;childLayout=stackLayout;horizontal=1;startSize=26;horizontalStack=0;resizeParent=1;resizeParentMax=0;resizeLast=0;collapsible=1;marginBottom=0;whiteSpace=wrap;html=1;" parent="1" vertex="1">
          <mxGeometry x="-950" y="240" width="430" height="158" as="geometry" />
        </mxCell>
        <mxCell id="Z-t9zzkmpwM4j7tZnlFa-20" value="&lt;div style=&quot;font-size: 26px;&quot;&gt;&lt;font style=&quot;font-size: 26px;&quot;&gt;+ login : string&lt;/font&gt;&lt;/div&gt;&lt;div style=&quot;font-size: 26px;&quot;&gt;&lt;span style=&quot;background-color: initial;&quot;&gt;&lt;font style=&quot;font-size: 26px;&quot;&gt;+ password : string&lt;/font&gt;&lt;/span&gt;&lt;/div&gt;&lt;div style=&quot;font-size: 26px;&quot;&gt;&lt;span style=&quot;background-color: initial;&quot;&gt;&lt;br&gt;&lt;/span&gt;&lt;/div&gt;" style="text;strokeColor=none;fillColor=none;align=left;verticalAlign=top;spacingLeft=4;spacingRight=4;overflow=hidden;rotatable=0;points=[[0,0.5],[1,0.5]];portConstraint=eastwest;whiteSpace=wrap;html=1;" parent="Z-t9zzkmpwM4j7tZnlFa-19" vertex="1">
          <mxGeometry y="26" width="430" height="124" as="geometry" />
        </mxCell>
        <mxCell id="Z-t9zzkmpwM4j7tZnlFa-21" value="" style="line;strokeWidth=1;fillColor=none;align=left;verticalAlign=middle;spacingTop=-1;spacingLeft=3;spacingRight=3;rotatable=0;labelPosition=right;points=[];portConstraint=eastwest;strokeColor=inherit;" parent="Z-t9zzkmpwM4j7tZnlFa-19" vertex="1">
          <mxGeometry y="150" width="430" height="8" as="geometry" />
        </mxCell>
        <mxCell id="Z-t9zzkmpwM4j7tZnlFa-27" value="&lt;font style=&quot;font-size: 16px;&quot;&gt;LeaderBoardData&lt;/font&gt;" style="swimlane;fontStyle=1;align=center;verticalAlign=top;childLayout=stackLayout;horizontal=1;startSize=26;horizontalStack=0;resizeParent=1;resizeParentMax=0;resizeLast=0;collapsible=1;marginBottom=0;whiteSpace=wrap;html=1;" parent="1" vertex="1">
          <mxGeometry x="-30" y="240" width="430" height="158" as="geometry" />
        </mxCell>
        <mxCell id="Z-t9zzkmpwM4j7tZnlFa-28" value="&lt;div style=&quot;font-size: 26px;&quot;&gt;&lt;font style=&quot;font-size: 26px;&quot;&gt;+ nick_name : string&lt;/font&gt;&lt;/div&gt;&lt;div style=&quot;font-size: 26px;&quot;&gt;&lt;font style=&quot;font-size: 26px;&quot;&gt;+ time : decimal&lt;/font&gt;&lt;/div&gt;&lt;div style=&quot;font-size: 26px;&quot;&gt;&lt;font style=&quot;font-size: 26px;&quot;&gt;+ create_time : DateTime&amp;nbsp;&amp;nbsp;&lt;/font&gt;&lt;/div&gt;" style="text;strokeColor=none;fillColor=none;align=left;verticalAlign=top;spacingLeft=4;spacingRight=4;overflow=hidden;rotatable=0;points=[[0,0.5],[1,0.5]];portConstraint=eastwest;whiteSpace=wrap;html=1;" parent="Z-t9zzkmpwM4j7tZnlFa-27" vertex="1">
          <mxGeometry y="26" width="430" height="124" as="geometry" />
        </mxCell>
        <mxCell id="Z-t9zzkmpwM4j7tZnlFa-29" value="" style="line;strokeWidth=1;fillColor=none;align=left;verticalAlign=middle;spacingTop=-1;spacingLeft=3;spacingRight=3;rotatable=0;labelPosition=right;points=[];portConstraint=eastwest;strokeColor=inherit;" parent="Z-t9zzkmpwM4j7tZnlFa-27" vertex="1">
          <mxGeometry y="150" width="430" height="8" as="geometry" />
        </mxCell>
        <mxCell id="8IsV2VG3H375RGorvR2R-8" value="&lt;font style=&quot;font-size: 16px;&quot;&gt;PlayerController&lt;/font&gt;" style="swimlane;fontStyle=1;align=center;verticalAlign=top;childLayout=stackLayout;horizontal=1;startSize=26;horizontalStack=0;resizeParent=1;resizeParentMax=0;resizeLast=0;collapsible=1;marginBottom=0;whiteSpace=wrap;html=1;" parent="1" vertex="1">
          <mxGeometry x="-600" y="1480" width="550" height="320" as="geometry" />
        </mxCell>
        <mxCell id="8IsV2VG3H375RGorvR2R-9" value="&lt;div&gt;&lt;span style=&quot;background-color: initial;&quot;&gt;&lt;font style=&quot;font-size: 26px;&quot;&gt;- _playerService : PlayerService&lt;/font&gt;&lt;/span&gt;&lt;br&gt;&lt;/div&gt;" style="text;strokeColor=none;fillColor=none;align=left;verticalAlign=top;spacingLeft=4;spacingRight=4;overflow=hidden;rotatable=0;points=[[0,0.5],[1,0.5]];portConstraint=eastwest;whiteSpace=wrap;html=1;" parent="8IsV2VG3H375RGorvR2R-8" vertex="1">
          <mxGeometry y="26" width="550" height="124" as="geometry" />
        </mxCell>
        <mxCell id="8IsV2VG3H375RGorvR2R-10" value="" style="line;strokeWidth=1;fillColor=none;align=left;verticalAlign=middle;spacingTop=-1;spacingLeft=3;spacingRight=3;rotatable=0;labelPosition=right;points=[];portConstraint=eastwest;strokeColor=inherit;" parent="8IsV2VG3H375RGorvR2R-8" vertex="1">
          <mxGeometry y="150" width="550" height="8" as="geometry" />
        </mxCell>
        <mxCell id="8IsV2VG3H375RGorvR2R-11" value="&lt;font style=&quot;font-size: 26px;&quot;&gt;+PlayerController(service : PlayerService)&lt;br&gt;+GetPlayerData():ActionResult&amp;lt;PlayerData?&amp;gt;&lt;br&gt;+UpdateStatistic(data : PlayerData) : ActionResult&lt;/font&gt;" style="text;strokeColor=none;fillColor=none;align=left;verticalAlign=top;spacingLeft=4;spacingRight=4;overflow=hidden;rotatable=0;points=[[0,0.5],[1,0.5]];portConstraint=eastwest;whiteSpace=wrap;html=1;" parent="8IsV2VG3H375RGorvR2R-8" vertex="1">
          <mxGeometry y="158" width="550" height="162" as="geometry" />
        </mxCell>
        <mxCell id="8IsV2VG3H375RGorvR2R-12" value="&lt;font style=&quot;font-size: 16px;&quot;&gt;InventoryController&lt;/font&gt;" style="swimlane;fontStyle=1;align=center;verticalAlign=top;childLayout=stackLayout;horizontal=1;startSize=26;horizontalStack=0;resizeParent=1;resizeParentMax=0;resizeLast=0;collapsible=1;marginBottom=0;whiteSpace=wrap;html=1;" parent="1" vertex="1">
          <mxGeometry x="-600" y="1860" width="550" height="350" as="geometry" />
        </mxCell>
        <mxCell id="8IsV2VG3H375RGorvR2R-13" value="&lt;div&gt;&lt;span style=&quot;background-color: initial;&quot;&gt;&lt;font style=&quot;font-size: 26px;&quot;&gt;- _inventoryService : InventoryService&lt;/font&gt;&lt;/span&gt;&lt;br&gt;&lt;/div&gt;&lt;div&gt;&lt;font style=&quot;font-size: 24px;&quot;&gt;- _itemService : ItemService&lt;/font&gt;&lt;span style=&quot;background-color: initial;&quot;&gt;&lt;font style=&quot;font-size: 26px;&quot;&gt;&lt;br&gt;&lt;/font&gt;&lt;/span&gt;&lt;/div&gt;" style="text;strokeColor=none;fillColor=none;align=left;verticalAlign=top;spacingLeft=4;spacingRight=4;overflow=hidden;rotatable=0;points=[[0,0.5],[1,0.5]];portConstraint=eastwest;whiteSpace=wrap;html=1;" parent="8IsV2VG3H375RGorvR2R-12" vertex="1">
          <mxGeometry y="26" width="550" height="124" as="geometry" />
        </mxCell>
        <mxCell id="8IsV2VG3H375RGorvR2R-14" value="" style="line;strokeWidth=1;fillColor=none;align=left;verticalAlign=middle;spacingTop=-1;spacingLeft=3;spacingRight=3;rotatable=0;labelPosition=right;points=[];portConstraint=eastwest;strokeColor=inherit;" parent="8IsV2VG3H375RGorvR2R-12" vertex="1">
          <mxGeometry y="150" width="550" height="8" as="geometry" />
        </mxCell>
        <mxCell id="8IsV2VG3H375RGorvR2R-15" value="&lt;font style=&quot;font-size: 20px;&quot;&gt;&amp;nbsp;+InventoryController(service : InventoryService, itemservice : ItemService)&lt;br&gt;&lt;span style=&quot;font-size: 20px;&quot;&gt;+GetItems() :&amp;nbsp;ActionResult&amp;lt;List&amp;lt;ItemData&amp;gt;&amp;gt;?&lt;br&gt;+AddItem(data : ItemData) :&amp;nbsp;ActionResult&amp;lt;bool&amp;gt;&lt;br&gt;&lt;/span&gt;&lt;br&gt;&lt;/font&gt;" style="text;strokeColor=none;fillColor=none;align=left;verticalAlign=top;spacingLeft=4;spacingRight=4;overflow=hidden;rotatable=0;points=[[0,0.5],[1,0.5]];portConstraint=eastwest;whiteSpace=wrap;html=1;" parent="8IsV2VG3H375RGorvR2R-12" vertex="1">
          <mxGeometry y="158" width="550" height="192" as="geometry" />
        </mxCell>
        <mxCell id="8IsV2VG3H375RGorvR2R-16" value="&lt;font style=&quot;font-size: 16px;&quot;&gt;ItemController&lt;/font&gt;" style="swimlane;fontStyle=1;align=center;verticalAlign=top;childLayout=stackLayout;horizontal=1;startSize=26;horizontalStack=0;resizeParent=1;resizeParentMax=0;resizeLast=0;collapsible=1;marginBottom=0;whiteSpace=wrap;html=1;" parent="1" vertex="1">
          <mxGeometry x="-600" y="2280" width="550" height="330" as="geometry" />
        </mxCell>
        <mxCell id="8IsV2VG3H375RGorvR2R-17" value="&lt;div&gt;&lt;span style=&quot;background-color: initial;&quot;&gt;&lt;font style=&quot;font-size: 26px;&quot;&gt;-_itemService : ItemService&lt;/font&gt;&lt;/span&gt;&lt;br&gt;&lt;/div&gt;" style="text;strokeColor=none;fillColor=none;align=left;verticalAlign=top;spacingLeft=4;spacingRight=4;overflow=hidden;rotatable=0;points=[[0,0.5],[1,0.5]];portConstraint=eastwest;whiteSpace=wrap;html=1;" parent="8IsV2VG3H375RGorvR2R-16" vertex="1">
          <mxGeometry y="26" width="550" height="124" as="geometry" />
        </mxCell>
        <mxCell id="8IsV2VG3H375RGorvR2R-18" value="" style="line;strokeWidth=1;fillColor=none;align=left;verticalAlign=middle;spacingTop=-1;spacingLeft=3;spacingRight=3;rotatable=0;labelPosition=right;points=[];portConstraint=eastwest;strokeColor=inherit;" parent="8IsV2VG3H375RGorvR2R-16" vertex="1">
          <mxGeometry y="150" width="550" height="8" as="geometry" />
        </mxCell>
        <mxCell id="8IsV2VG3H375RGorvR2R-19" value="&lt;font style=&quot;font-size: 26px;&quot;&gt;+ItemController(_service : ItemService)&lt;br&gt;+GetItemNames() : ActionResult&amp;lt;List&amp;lt;ItemData&amp;gt;&amp;gt;&lt;br&gt;+BuyItem(name : string) : ActionResult&amp;lt;bool&amp;gt;&lt;br&gt;&lt;/font&gt;" style="text;strokeColor=none;fillColor=none;align=left;verticalAlign=top;spacingLeft=4;spacingRight=4;overflow=hidden;rotatable=0;points=[[0,0.5],[1,0.5]];portConstraint=eastwest;whiteSpace=wrap;html=1;" parent="8IsV2VG3H375RGorvR2R-16" vertex="1">
          <mxGeometry y="158" width="550" height="172" as="geometry" />
        </mxCell>
        <mxCell id="8IsV2VG3H375RGorvR2R-20" value="&lt;font style=&quot;font-size: 16px;&quot;&gt;LeaderBoardController&lt;/font&gt;" style="swimlane;fontStyle=1;align=center;verticalAlign=top;childLayout=stackLayout;horizontal=1;startSize=26;horizontalStack=0;resizeParent=1;resizeParentMax=0;resizeLast=0;collapsible=1;marginBottom=0;whiteSpace=wrap;html=1;" parent="1" vertex="1">
          <mxGeometry x="-600" y="2670" width="560" height="370" as="geometry" />
        </mxCell>
        <mxCell id="8IsV2VG3H375RGorvR2R-21" value="&lt;div&gt;&lt;span style=&quot;background-color: initial;&quot;&gt;&lt;font style=&quot;font-size: 26px;&quot;&gt;- _leaderBoardService : LeaderBoardService&lt;/font&gt;&lt;/span&gt;&lt;br&gt;&lt;/div&gt;" style="text;strokeColor=none;fillColor=none;align=left;verticalAlign=top;spacingLeft=4;spacingRight=4;overflow=hidden;rotatable=0;points=[[0,0.5],[1,0.5]];portConstraint=eastwest;whiteSpace=wrap;html=1;" parent="8IsV2VG3H375RGorvR2R-20" vertex="1">
          <mxGeometry y="26" width="560" height="124" as="geometry" />
        </mxCell>
        <mxCell id="8IsV2VG3H375RGorvR2R-22" value="" style="line;strokeWidth=1;fillColor=none;align=left;verticalAlign=middle;spacingTop=-1;spacingLeft=3;spacingRight=3;rotatable=0;labelPosition=right;points=[];portConstraint=eastwest;strokeColor=inherit;" parent="8IsV2VG3H375RGorvR2R-20" vertex="1">
          <mxGeometry y="150" width="560" height="8" as="geometry" />
        </mxCell>
        <mxCell id="8IsV2VG3H375RGorvR2R-23" value="&lt;font style=&quot;font-size: 26px;&quot;&gt;+LeaderBoardController(service : LeaderBoardService)&amp;nbsp;&lt;br&gt;+GetLeaderBoard() :&amp;nbsp;ActionResult&amp;lt; List&amp;lt;LeaderBoardData&amp;gt;&lt;br&gt;+SetRecord() : ActionResult&lt;/font&gt;" style="text;strokeColor=none;fillColor=none;align=left;verticalAlign=top;spacingLeft=4;spacingRight=4;overflow=hidden;rotatable=0;points=[[0,0.5],[1,0.5]];portConstraint=eastwest;whiteSpace=wrap;html=1;" parent="8IsV2VG3H375RGorvR2R-20" vertex="1">
          <mxGeometry y="158" width="560" height="212" as="geometry" />
        </mxCell>
        <mxCell id="8IsV2VG3H375RGorvR2R-24" value="&lt;font style=&quot;font-size: 16px;&quot;&gt;UserService&lt;/font&gt;" style="swimlane;fontStyle=1;align=center;verticalAlign=top;childLayout=stackLayout;horizontal=1;startSize=26;horizontalStack=0;resizeParent=1;resizeParentMax=0;resizeLast=0;collapsible=1;marginBottom=0;whiteSpace=wrap;html=1;" parent="1" vertex="1">
          <mxGeometry x="140" y="1050" width="640" height="380" as="geometry" />
        </mxCell>
        <mxCell id="8IsV2VG3H375RGorvR2R-25" value="&lt;div&gt;&lt;font style=&quot;font-size: 26px;&quot;&gt;-_context :&amp;nbsp;OrbitiumDataBaseContext&lt;/font&gt;&lt;br&gt;&lt;/div&gt;" style="text;strokeColor=none;fillColor=none;align=left;verticalAlign=top;spacingLeft=4;spacingRight=4;overflow=hidden;rotatable=0;points=[[0,0.5],[1,0.5]];portConstraint=eastwest;whiteSpace=wrap;html=1;" parent="8IsV2VG3H375RGorvR2R-24" vertex="1">
          <mxGeometry y="26" width="640" height="124" as="geometry" />
        </mxCell>
        <mxCell id="8IsV2VG3H375RGorvR2R-26" value="" style="line;strokeWidth=1;fillColor=none;align=left;verticalAlign=middle;spacingTop=-1;spacingLeft=3;spacingRight=3;rotatable=0;labelPosition=right;points=[];portConstraint=eastwest;strokeColor=inherit;" parent="8IsV2VG3H375RGorvR2R-24" vertex="1">
          <mxGeometry y="150" width="640" height="8" as="geometry" />
        </mxCell>
        <mxCell id="8IsV2VG3H375RGorvR2R-27" value="&lt;font style=&quot;font-size: 26px;&quot;&gt;+UserService(context : OrbitiumDataBaseContext)&lt;br&gt;&lt;br&gt;+Login(data : LoginData) : JwtToken?&lt;br&gt;+CreateUser(data : RegisterData) : Guid&lt;br&gt;+DeleteUser(uid : Guid) : bool&lt;br&gt;-CreateHashCode(str : String) : byte[]&lt;/font&gt;" style="text;strokeColor=none;fillColor=none;align=left;verticalAlign=top;spacingLeft=4;spacingRight=4;overflow=hidden;rotatable=0;points=[[0,0.5],[1,0.5]];portConstraint=eastwest;whiteSpace=wrap;html=1;" parent="8IsV2VG3H375RGorvR2R-24" vertex="1">
          <mxGeometry y="158" width="640" height="222" as="geometry" />
        </mxCell>
        <mxCell id="8IsV2VG3H375RGorvR2R-28" value="&lt;font style=&quot;font-size: 16px;&quot;&gt;PlayerService&lt;/font&gt;" style="swimlane;fontStyle=1;align=center;verticalAlign=top;childLayout=stackLayout;horizontal=1;startSize=26;horizontalStack=0;resizeParent=1;resizeParentMax=0;resizeLast=0;collapsible=1;marginBottom=0;whiteSpace=wrap;html=1;" parent="1" vertex="1">
          <mxGeometry x="140" y="1790" width="640" height="310" as="geometry" />
        </mxCell>
        <mxCell id="8IsV2VG3H375RGorvR2R-29" value="&lt;div&gt;&lt;/div&gt;&lt;font style=&quot;font-size: 26px;&quot;&gt;-_context :&amp;nbsp;OrbitiumDataBaseContext&lt;/font&gt;&lt;span style=&quot;font-size: 26px;&quot;&gt;&lt;br&gt;&lt;/span&gt;" style="text;strokeColor=none;fillColor=none;align=left;verticalAlign=top;spacingLeft=4;spacingRight=4;overflow=hidden;rotatable=0;points=[[0,0.5],[1,0.5]];portConstraint=eastwest;whiteSpace=wrap;html=1;" parent="8IsV2VG3H375RGorvR2R-28" vertex="1">
          <mxGeometry y="26" width="640" height="124" as="geometry" />
        </mxCell>
        <mxCell id="8IsV2VG3H375RGorvR2R-30" value="" style="line;strokeWidth=1;fillColor=none;align=left;verticalAlign=middle;spacingTop=-1;spacingLeft=3;spacingRight=3;rotatable=0;labelPosition=right;points=[];portConstraint=eastwest;strokeColor=inherit;" parent="8IsV2VG3H375RGorvR2R-28" vertex="1">
          <mxGeometry y="150" width="640" height="8" as="geometry" />
        </mxCell>
        <mxCell id="8IsV2VG3H375RGorvR2R-31" value="&lt;font style=&quot;font-size: 26px;&quot;&gt;+PlayerService(context : OrbitiumDataBaseContext)&lt;br&gt;+CreatePlayer(data : RegisterData) : bool&lt;br&gt;+GetPlayerData(guid : Guid) : PlayerData?&lt;br&gt;+UpdatePlayerStatistic(data : PlayerData) : bool&lt;/font&gt;" style="text;strokeColor=none;fillColor=none;align=left;verticalAlign=top;spacingLeft=4;spacingRight=4;overflow=hidden;rotatable=0;points=[[0,0.5],[1,0.5]];portConstraint=eastwest;whiteSpace=wrap;html=1;" parent="8IsV2VG3H375RGorvR2R-28" vertex="1">
          <mxGeometry y="158" width="640" height="152" as="geometry" />
        </mxCell>
        <mxCell id="8IsV2VG3H375RGorvR2R-32" value="&lt;font style=&quot;font-size: 16px;&quot;&gt;InventoryService&lt;/font&gt;" style="swimlane;fontStyle=1;align=center;verticalAlign=top;childLayout=stackLayout;horizontal=1;startSize=26;horizontalStack=0;resizeParent=1;resizeParentMax=0;resizeLast=0;collapsible=1;marginBottom=0;whiteSpace=wrap;html=1;" parent="1" vertex="1">
          <mxGeometry x="140" y="2150" width="640" height="290" as="geometry" />
        </mxCell>
        <mxCell id="8IsV2VG3H375RGorvR2R-33" value="&lt;div style=&quot;font-size: 26px;&quot;&gt;&lt;div style=&quot;border-color: var(--border-color);&quot;&gt;&lt;font style=&quot;border-color: var(--border-color); font-size: 26px;&quot;&gt;-_context :&amp;nbsp;&lt;/font&gt;&lt;span style=&quot;background-color: initial;&quot;&gt;OrbitiumDataBaseContext&lt;/span&gt;&lt;/div&gt;&lt;/div&gt;" style="text;strokeColor=none;fillColor=none;align=left;verticalAlign=top;spacingLeft=4;spacingRight=4;overflow=hidden;rotatable=0;points=[[0,0.5],[1,0.5]];portConstraint=eastwest;whiteSpace=wrap;html=1;" parent="8IsV2VG3H375RGorvR2R-32" vertex="1">
          <mxGeometry y="26" width="640" height="124" as="geometry" />
        </mxCell>
        <mxCell id="8IsV2VG3H375RGorvR2R-34" value="" style="line;strokeWidth=1;fillColor=none;align=left;verticalAlign=middle;spacingTop=-1;spacingLeft=3;spacingRight=3;rotatable=0;labelPosition=right;points=[];portConstraint=eastwest;strokeColor=inherit;" parent="8IsV2VG3H375RGorvR2R-32" vertex="1">
          <mxGeometry y="150" width="640" height="8" as="geometry" />
        </mxCell>
        <mxCell id="8IsV2VG3H375RGorvR2R-35" value="&lt;font style=&quot;font-size: 26px;&quot;&gt;+InventoryService(context:OrbitiumDataBaseContext)&lt;br&gt;+GetItemsFromInventory(uid : Guid) : List&amp;lt;ItemData&amp;gt;?&lt;br&gt;+AddItem(data : ItemData, uid : string) : bool&lt;br&gt;+CreateInventory(id : int) : bool&lt;br&gt;&lt;/font&gt;" style="text;strokeColor=none;fillColor=none;align=left;verticalAlign=top;spacingLeft=4;spacingRight=4;overflow=hidden;rotatable=0;points=[[0,0.5],[1,0.5]];portConstraint=eastwest;whiteSpace=wrap;html=1;" parent="8IsV2VG3H375RGorvR2R-32" vertex="1">
          <mxGeometry y="158" width="640" height="132" as="geometry" />
        </mxCell>
        <mxCell id="8IsV2VG3H375RGorvR2R-36" value="&lt;font style=&quot;font-size: 16px;&quot;&gt;ItemService&lt;/font&gt;" style="swimlane;fontStyle=1;align=center;verticalAlign=top;childLayout=stackLayout;horizontal=1;startSize=26;horizontalStack=0;resizeParent=1;resizeParentMax=0;resizeLast=0;collapsible=1;marginBottom=0;whiteSpace=wrap;html=1;" parent="1" vertex="1">
          <mxGeometry x="140" y="2540" width="640" height="290" as="geometry" />
        </mxCell>
        <mxCell id="8IsV2VG3H375RGorvR2R-37" value="&lt;div style=&quot;font-size: 26px;&quot;&gt;&lt;font style=&quot;border-color: var(--border-color); font-size: 26px;&quot;&gt;-_context :&amp;nbsp;&lt;/font&gt;OrbitiumDataBaseContext&lt;br&gt;&lt;/div&gt;" style="text;strokeColor=none;fillColor=none;align=left;verticalAlign=top;spacingLeft=4;spacingRight=4;overflow=hidden;rotatable=0;points=[[0,0.5],[1,0.5]];portConstraint=eastwest;whiteSpace=wrap;html=1;" parent="8IsV2VG3H375RGorvR2R-36" vertex="1">
          <mxGeometry y="26" width="640" height="124" as="geometry" />
        </mxCell>
        <mxCell id="8IsV2VG3H375RGorvR2R-38" value="" style="line;strokeWidth=1;fillColor=none;align=left;verticalAlign=middle;spacingTop=-1;spacingLeft=3;spacingRight=3;rotatable=0;labelPosition=right;points=[];portConstraint=eastwest;strokeColor=inherit;" parent="8IsV2VG3H375RGorvR2R-36" vertex="1">
          <mxGeometry y="150" width="640" height="8" as="geometry" />
        </mxCell>
        <mxCell id="8IsV2VG3H375RGorvR2R-39" value="&lt;font style=&quot;font-size: 26px;&quot;&gt;+ItemService(context : OrbitiumDataBaseContext)&lt;br&gt;+GetItems : List&amp;lt;ItemData&amp;gt;&lt;br&gt;+BuyItem(uid : Guid, name : string) : bool&lt;br&gt;&lt;br&gt;&lt;/font&gt;" style="text;strokeColor=none;fillColor=none;align=left;verticalAlign=top;spacingLeft=4;spacingRight=4;overflow=hidden;rotatable=0;points=[[0,0.5],[1,0.5]];portConstraint=eastwest;whiteSpace=wrap;html=1;" parent="8IsV2VG3H375RGorvR2R-36" vertex="1">
          <mxGeometry y="158" width="640" height="132" as="geometry" />
        </mxCell>
        <mxCell id="8IsV2VG3H375RGorvR2R-40" value="&lt;font style=&quot;font-size: 16px;&quot;&gt;LeaderBoardService&lt;/font&gt;" style="swimlane;fontStyle=1;align=center;verticalAlign=top;childLayout=stackLayout;horizontal=1;startSize=26;horizontalStack=0;resizeParent=1;resizeParentMax=0;resizeLast=0;collapsible=1;marginBottom=0;whiteSpace=wrap;html=1;" parent="1" vertex="1">
          <mxGeometry x="140" y="2900" width="640" height="290" as="geometry" />
        </mxCell>
        <mxCell id="8IsV2VG3H375RGorvR2R-41" value="&lt;div style=&quot;font-size: 26px;&quot;&gt;&lt;font style=&quot;border-color: var(--border-color); font-size: 26px;&quot;&gt;-_context :&amp;nbsp;&lt;/font&gt;OrbitiumDataBaseContext&lt;br&gt;&lt;/div&gt;" style="text;strokeColor=none;fillColor=none;align=left;verticalAlign=top;spacingLeft=4;spacingRight=4;overflow=hidden;rotatable=0;points=[[0,0.5],[1,0.5]];portConstraint=eastwest;whiteSpace=wrap;html=1;" parent="8IsV2VG3H375RGorvR2R-40" vertex="1">
          <mxGeometry y="26" width="640" height="124" as="geometry" />
        </mxCell>
        <mxCell id="8IsV2VG3H375RGorvR2R-42" value="" style="line;strokeWidth=1;fillColor=none;align=left;verticalAlign=middle;spacingTop=-1;spacingLeft=3;spacingRight=3;rotatable=0;labelPosition=right;points=[];portConstraint=eastwest;strokeColor=inherit;" parent="8IsV2VG3H375RGorvR2R-40" vertex="1">
          <mxGeometry y="150" width="640" height="8" as="geometry" />
        </mxCell>
        <mxCell id="8IsV2VG3H375RGorvR2R-43" value="&lt;font style=&quot;font-size: 26px;&quot;&gt;+LeaderBoardService(context : OrbitiumDataBaseContext)&lt;br&gt;+GetLeaderBoards() :&amp;nbsp;List&amp;lt;LeaderBoardData&amp;gt;&lt;br&gt;+SetNewRecord(uid : Guid) : bool&lt;br&gt;&lt;/font&gt;" style="text;strokeColor=none;fillColor=none;align=left;verticalAlign=top;spacingLeft=4;spacingRight=4;overflow=hidden;rotatable=0;points=[[0,0.5],[1,0.5]];portConstraint=eastwest;whiteSpace=wrap;html=1;" parent="8IsV2VG3H375RGorvR2R-40" vertex="1">
          <mxGeometry y="158" width="640" height="132" as="geometry" />
        </mxCell>
        <mxCell id="SClnxfSspIYyuJ6Jdpdt-1" value="Use" style="endArrow=open;endSize=12;dashed=1;html=1;rounded=0;" parent="1" source="Z-t9zzkmpwM4j7tZnlFa-4" target="8IsV2VG3H375RGorvR2R-25" edge="1">
          <mxGeometry width="160" relative="1" as="geometry">
            <mxPoint x="10" y="1190" as="sourcePoint" />
            <mxPoint x="170" y="1190" as="targetPoint" />
          </mxGeometry>
        </mxCell>
        <mxCell id="l7b9y4i5OmydfN4GE81i-1" value="&lt;font style=&quot;font-size: 16px;&quot;&gt;RegisterData&lt;/font&gt;" style="swimlane;fontStyle=1;align=center;verticalAlign=top;childLayout=stackLayout;horizontal=1;startSize=26;horizontalStack=0;resizeParent=1;resizeParentMax=0;resizeLast=0;collapsible=1;marginBottom=0;whiteSpace=wrap;html=1;" parent="1" vertex="1">
          <mxGeometry x="-950" y="450" width="430" height="158" as="geometry" />
        </mxCell>
        <mxCell id="l7b9y4i5OmydfN4GE81i-2" value="&lt;div style=&quot;font-size: 26px;&quot;&gt;&lt;font style=&quot;font-size: 26px;&quot;&gt;+ Login : string&lt;/font&gt;&lt;/div&gt;&lt;div style=&quot;font-size: 26px;&quot;&gt;&lt;font style=&quot;font-size: 26px;&quot;&gt;+ Password : string&lt;br&gt;&lt;/font&gt;&lt;/div&gt;&lt;div style=&quot;font-size: 26px;&quot;&gt;&lt;font style=&quot;font-size: 26px;&quot;&gt;+ Nick : string&lt;span style=&quot;background-color: initial;&quot;&gt;&amp;nbsp;&amp;nbsp;&lt;/span&gt;&lt;/font&gt;&lt;/div&gt;" style="text;strokeColor=none;fillColor=none;align=left;verticalAlign=top;spacingLeft=4;spacingRight=4;overflow=hidden;rotatable=0;points=[[0,0.5],[1,0.5]];portConstraint=eastwest;whiteSpace=wrap;html=1;" parent="l7b9y4i5OmydfN4GE81i-1" vertex="1">
          <mxGeometry y="26" width="430" height="124" as="geometry" />
        </mxCell>
        <mxCell id="l7b9y4i5OmydfN4GE81i-3" value="" style="line;strokeWidth=1;fillColor=none;align=left;verticalAlign=middle;spacingTop=-1;spacingLeft=3;spacingRight=3;rotatable=0;labelPosition=right;points=[];portConstraint=eastwest;strokeColor=inherit;" parent="l7b9y4i5OmydfN4GE81i-1" vertex="1">
          <mxGeometry y="150" width="430" height="8" as="geometry" />
        </mxCell>
        <mxCell id="l7b9y4i5OmydfN4GE81i-6" value="" style="group;movable=1;resizable=1;rotatable=1;deletable=1;editable=1;locked=0;connectable=1;" parent="1" vertex="1" connectable="0">
          <mxGeometry x="1690" y="1010" width="2770" height="1170" as="geometry" />
        </mxCell>
        <mxCell id="8IsV2VG3H375RGorvR2R-44" value="&lt;p style=&quot;text-align: center; margin: 4px 0px 0px; text-decoration: underline;&quot;&gt;&lt;span style=&quot;font-size: 40px;&quot;&gt;&lt;b&gt;DAL (Database Access Layer)&lt;/b&gt;&lt;/span&gt;&lt;/p&gt;" style="verticalAlign=top;align=left;overflow=fill;fontSize=12;fontFamily=Helvetica;html=1;whiteSpace=wrap;movable=1;resizable=1;rotatable=1;deletable=1;editable=1;locked=0;connectable=1;" parent="l7b9y4i5OmydfN4GE81i-6" vertex="1">
          <mxGeometry width="2770" height="1170" as="geometry" />
        </mxCell>
        <mxCell id="r4ibEJz4Eycf6nJenLvt-17" value="" style="rounded=0;whiteSpace=wrap;html=1;" parent="l7b9y4i5OmydfN4GE81i-6" vertex="1">
          <mxGeometry x="580" y="540" width="1490" height="600" as="geometry" />
        </mxCell>
        <mxCell id="Z-t9zzkmpwM4j7tZnlFa-7" value="OrbitiumDataBaseContext" style="swimlane;fontStyle=1;align=center;verticalAlign=top;childLayout=stackLayout;horizontal=1;startSize=26;horizontalStack=0;resizeParent=1;resizeParentMax=0;resizeLast=0;collapsible=1;marginBottom=0;whiteSpace=wrap;html=1;" parent="l7b9y4i5OmydfN4GE81i-6" vertex="1">
          <mxGeometry x="1170" y="150" width="430" height="290" as="geometry" />
        </mxCell>
        <mxCell id="Z-t9zzkmpwM4j7tZnlFa-8" value="&lt;font style=&quot;font-size: 16px;&quot;&gt;+Users : DbSet&amp;lt;Users&amp;gt;&amp;nbsp;&lt;br&gt;&lt;span style=&quot;background-color: initial;&quot;&gt;+Player : DbSet&amp;lt;Players&amp;gt;&lt;/span&gt;&lt;br&gt;&lt;/font&gt;&lt;div style=&quot;font-size: 16px;&quot;&gt;&lt;font style=&quot;font-size: 16px;&quot;&gt;+Items : DbSet&amp;lt;items&amp;gt;&amp;nbsp;&lt;/font&gt;&lt;/div&gt;&lt;div style=&quot;font-size: 16px;&quot;&gt;&lt;span style=&quot;background-color: initial;&quot;&gt;&lt;font style=&quot;font-size: 16px;&quot;&gt;+Inventory : DbSet&amp;lt;inventories&amp;gt;&amp;nbsp;&lt;/font&gt;&lt;/span&gt;&lt;/div&gt;&lt;div style=&quot;font-size: 16px;&quot;&gt;&lt;span style=&quot;background-color: initial;&quot;&gt;+LeaderBoards : DbSet&amp;lt;leaderBoards&amp;gt;&lt;/span&gt;&lt;/div&gt;" style="text;strokeColor=none;fillColor=none;align=left;verticalAlign=top;spacingLeft=4;spacingRight=4;overflow=hidden;rotatable=0;points=[[0,0.5],[1,0.5]];portConstraint=eastwest;whiteSpace=wrap;html=1;" parent="Z-t9zzkmpwM4j7tZnlFa-7" vertex="1">
          <mxGeometry y="26" width="430" height="124" as="geometry" />
        </mxCell>
        <mxCell id="Z-t9zzkmpwM4j7tZnlFa-9" value="" style="line;strokeWidth=1;fillColor=none;align=left;verticalAlign=middle;spacingTop=-1;spacingLeft=3;spacingRight=3;rotatable=0;labelPosition=right;points=[];portConstraint=eastwest;strokeColor=inherit;" parent="Z-t9zzkmpwM4j7tZnlFa-7" vertex="1">
          <mxGeometry y="150" width="430" height="8" as="geometry" />
        </mxCell>
        <mxCell id="Z-t9zzkmpwM4j7tZnlFa-10" value="&lt;font style=&quot;font-size: 16px;&quot;&gt;+OrbitiumContext(options : DbContextOptions&amp;lt;OrbitiumContext&amp;gt;)&lt;br&gt;&lt;br&gt;#OnModelCreating(builder ModelBuilder) : void&lt;/font&gt;" style="text;strokeColor=none;fillColor=none;align=left;verticalAlign=top;spacingLeft=4;spacingRight=4;overflow=hidden;rotatable=0;points=[[0,0.5],[1,0.5]];portConstraint=eastwest;whiteSpace=wrap;html=1;" parent="Z-t9zzkmpwM4j7tZnlFa-7" vertex="1">
          <mxGeometry y="158" width="430" height="132" as="geometry" />
        </mxCell>
        <mxCell id="Z-t9zzkmpwM4j7tZnlFa-15" value="Players" style="swimlane;fontStyle=1;align=center;verticalAlign=top;childLayout=stackLayout;horizontal=1;startSize=26;horizontalStack=0;resizeParent=1;resizeParentMax=0;resizeLast=0;collapsible=1;marginBottom=0;whiteSpace=wrap;html=1;" parent="l7b9y4i5OmydfN4GE81i-6" vertex="1">
          <mxGeometry x="930" y="600" width="200" height="188" as="geometry" />
        </mxCell>
        <mxCell id="Z-t9zzkmpwM4j7tZnlFa-16" value="&lt;div&gt;&lt;span style=&quot;background-color: initial;&quot;&gt;+ID: int&lt;/span&gt;&lt;br&gt;&lt;/div&gt;&lt;div&gt;+uid : char(32)&lt;span style=&quot;background-color: initial;&quot;&gt;&lt;br&gt;&lt;/span&gt;&lt;/div&gt;+&lt;span style=&quot;background-color: initial;&quot;&gt;user_id : int&lt;/span&gt;&lt;br&gt;+nick_name : string&lt;br&gt;&lt;span style=&quot;background-color: initial;&quot;&gt;+best_time: decimal&lt;/span&gt;&lt;br&gt;&lt;div&gt;+orbs : int&lt;/div&gt;&lt;div&gt;&lt;br&gt;&lt;/div&gt;&lt;div&gt;+user : User&lt;/div&gt;&lt;div&gt;+inventory : Inventories&lt;br&gt;+leaderBoard : LeaderBoards&lt;/div&gt;" style="text;strokeColor=none;fillColor=none;align=left;verticalAlign=top;spacingLeft=4;spacingRight=4;overflow=hidden;rotatable=0;points=[[0,0.5],[1,0.5]];portConstraint=eastwest;whiteSpace=wrap;html=1;" parent="Z-t9zzkmpwM4j7tZnlFa-15" vertex="1">
          <mxGeometry y="26" width="200" height="154" as="geometry" />
        </mxCell>
        <mxCell id="Z-t9zzkmpwM4j7tZnlFa-17" value="" style="line;strokeWidth=1;fillColor=none;align=left;verticalAlign=middle;spacingTop=-1;spacingLeft=3;spacingRight=3;rotatable=0;labelPosition=right;points=[];portConstraint=eastwest;strokeColor=inherit;" parent="Z-t9zzkmpwM4j7tZnlFa-15" vertex="1">
          <mxGeometry y="180" width="200" height="8" as="geometry" />
        </mxCell>
        <mxCell id="Z-t9zzkmpwM4j7tZnlFa-31" value="Users" style="swimlane;fontStyle=1;align=center;verticalAlign=top;childLayout=stackLayout;horizontal=1;startSize=26;horizontalStack=0;resizeParent=1;resizeParentMax=0;resizeLast=0;collapsible=1;marginBottom=0;whiteSpace=wrap;html=1;" parent="l7b9y4i5OmydfN4GE81i-6" vertex="1">
          <mxGeometry x="660" y="615" width="170" height="158" as="geometry" />
        </mxCell>
        <mxCell id="Z-t9zzkmpwM4j7tZnlFa-32" value="&lt;div&gt;&lt;span style=&quot;background-color: initial;&quot;&gt;+ID : int&lt;/span&gt;&lt;/div&gt;+uid : char(32)&lt;div&gt;&lt;span style=&quot;background-color: initial;&quot;&gt;+login : string&lt;/span&gt;&lt;/div&gt;&lt;div&gt;+password : VARBINARY&lt;br&gt;+create_time : DateTime&lt;br&gt;&lt;br&gt;+player : Player&lt;/div&gt;" style="text;strokeColor=none;fillColor=none;align=left;verticalAlign=top;spacingLeft=4;spacingRight=4;overflow=hidden;rotatable=0;points=[[0,0.5],[1,0.5]];portConstraint=eastwest;whiteSpace=wrap;html=1;" parent="Z-t9zzkmpwM4j7tZnlFa-31" vertex="1">
          <mxGeometry y="26" width="170" height="124" as="geometry" />
        </mxCell>
        <mxCell id="Z-t9zzkmpwM4j7tZnlFa-33" value="" style="line;strokeWidth=1;fillColor=none;align=left;verticalAlign=middle;spacingTop=-1;spacingLeft=3;spacingRight=3;rotatable=0;labelPosition=right;points=[];portConstraint=eastwest;strokeColor=inherit;" parent="Z-t9zzkmpwM4j7tZnlFa-31" vertex="1">
          <mxGeometry y="150" width="170" height="8" as="geometry" />
        </mxCell>
        <mxCell id="8IsV2VG3H375RGorvR2R-1" value="LeaderBoards" style="swimlane;fontStyle=1;align=center;verticalAlign=top;childLayout=stackLayout;horizontal=1;startSize=26;horizontalStack=0;resizeParent=1;resizeParentMax=0;resizeLast=0;collapsible=1;marginBottom=0;whiteSpace=wrap;html=1;" parent="l7b9y4i5OmydfN4GE81i-6" vertex="1">
          <mxGeometry x="1190" y="910" width="170" height="158" as="geometry" />
        </mxCell>
        <mxCell id="8IsV2VG3H375RGorvR2R-2" value="+ID : int&lt;br&gt;+uid : Guid&lt;br&gt;+player_id : int&lt;br&gt;+time : decimal&lt;br&gt;+create_time : DateTime&lt;br&gt;&lt;br&gt;+player : Players?" style="text;strokeColor=none;fillColor=none;align=left;verticalAlign=top;spacingLeft=4;spacingRight=4;overflow=hidden;rotatable=0;points=[[0,0.5],[1,0.5]];portConstraint=eastwest;whiteSpace=wrap;html=1;" parent="8IsV2VG3H375RGorvR2R-1" vertex="1">
          <mxGeometry y="26" width="170" height="124" as="geometry" />
        </mxCell>
        <mxCell id="8IsV2VG3H375RGorvR2R-3" value="" style="line;strokeWidth=1;fillColor=none;align=left;verticalAlign=middle;spacingTop=-1;spacingLeft=3;spacingRight=3;rotatable=0;labelPosition=right;points=[];portConstraint=eastwest;strokeColor=inherit;" parent="8IsV2VG3H375RGorvR2R-1" vertex="1">
          <mxGeometry y="150" width="170" height="8" as="geometry" />
        </mxCell>
        <mxCell id="8IsV2VG3H375RGorvR2R-45" value="Inventories" style="swimlane;fontStyle=1;align=center;verticalAlign=top;childLayout=stackLayout;horizontal=1;startSize=26;horizontalStack=0;resizeParent=1;resizeParentMax=0;resizeLast=0;collapsible=1;marginBottom=0;whiteSpace=wrap;html=1;" parent="l7b9y4i5OmydfN4GE81i-6" vertex="1">
          <mxGeometry x="1250" y="615" width="190" height="158" as="geometry" />
        </mxCell>
        <mxCell id="8IsV2VG3H375RGorvR2R-46" value="&lt;div&gt;&lt;span style=&quot;background-color: initial;&quot;&gt;+ID : int&lt;/span&gt;&lt;/div&gt;&lt;div&gt;+uid : Guid&lt;/div&gt;&lt;div&gt;&lt;span style=&quot;background-color: initial;&quot;&gt;+player_id : int&lt;/span&gt;&lt;/div&gt;&lt;div&gt;+create_time : DateTime&lt;/div&gt;&lt;div&gt;&lt;br&gt;&lt;/div&gt;&lt;div&gt;+items : ICollection&amp;lt;Items&amp;gt;&lt;/div&gt;&lt;div&gt;+player : Players?&lt;/div&gt;" style="text;strokeColor=none;fillColor=none;align=left;verticalAlign=top;spacingLeft=4;spacingRight=4;overflow=hidden;rotatable=0;points=[[0,0.5],[1,0.5]];portConstraint=eastwest;whiteSpace=wrap;html=1;" parent="8IsV2VG3H375RGorvR2R-45" vertex="1">
          <mxGeometry y="26" width="190" height="124" as="geometry" />
        </mxCell>
        <mxCell id="8IsV2VG3H375RGorvR2R-47" value="" style="line;strokeWidth=1;fillColor=none;align=left;verticalAlign=middle;spacingTop=-1;spacingLeft=3;spacingRight=3;rotatable=0;labelPosition=right;points=[];portConstraint=eastwest;strokeColor=inherit;" parent="8IsV2VG3H375RGorvR2R-45" vertex="1">
          <mxGeometry y="150" width="190" height="8" as="geometry" />
        </mxCell>
        <mxCell id="8IsV2VG3H375RGorvR2R-49" value="Items" style="swimlane;fontStyle=1;align=center;verticalAlign=top;childLayout=stackLayout;horizontal=1;startSize=26;horizontalStack=0;resizeParent=1;resizeParentMax=0;resizeLast=0;collapsible=1;marginBottom=0;whiteSpace=wrap;html=1;" parent="l7b9y4i5OmydfN4GE81i-6" vertex="1">
          <mxGeometry x="1550" y="615" width="160" height="158" as="geometry" />
        </mxCell>
        <mxCell id="8IsV2VG3H375RGorvR2R-50" value="+ID : int&lt;br&gt;+uid : Guid&lt;br&gt;+name : string&lt;br&gt;+price : int&lt;br&gt;+create_time : DateTime&lt;br&gt;+inventory_id : int&lt;br&gt;&lt;br&gt;+inventory : Inventories?" style="text;strokeColor=none;fillColor=none;align=left;verticalAlign=top;spacingLeft=4;spacingRight=4;overflow=hidden;rotatable=0;points=[[0,0.5],[1,0.5]];portConstraint=eastwest;whiteSpace=wrap;html=1;" parent="8IsV2VG3H375RGorvR2R-49" vertex="1">
          <mxGeometry y="26" width="160" height="124" as="geometry" />
        </mxCell>
        <mxCell id="8IsV2VG3H375RGorvR2R-51" value="" style="line;strokeWidth=1;fillColor=none;align=left;verticalAlign=middle;spacingTop=-1;spacingLeft=3;spacingRight=3;rotatable=0;labelPosition=right;points=[];portConstraint=eastwest;strokeColor=inherit;" parent="8IsV2VG3H375RGorvR2R-49" vertex="1">
          <mxGeometry y="150" width="160" height="8" as="geometry" />
        </mxCell>
        <mxCell id="r4ibEJz4Eycf6nJenLvt-2" value="ItemStorage" style="swimlane;fontStyle=1;align=center;verticalAlign=top;childLayout=stackLayout;horizontal=1;startSize=26;horizontalStack=0;resizeParent=1;resizeParentMax=0;resizeLast=0;collapsible=1;marginBottom=0;whiteSpace=wrap;html=1;" parent="l7b9y4i5OmydfN4GE81i-6" vertex="1">
          <mxGeometry x="1800" y="615" width="170" height="158" as="geometry" />
        </mxCell>
        <mxCell id="r4ibEJz4Eycf6nJenLvt-3" value="+ID : int&lt;br&gt;+uid : Guid&lt;br&gt;+name : string&lt;br&gt;+price : int" style="text;strokeColor=none;fillColor=none;align=left;verticalAlign=top;spacingLeft=4;spacingRight=4;overflow=hidden;rotatable=0;points=[[0,0.5],[1,0.5]];portConstraint=eastwest;whiteSpace=wrap;html=1;" parent="r4ibEJz4Eycf6nJenLvt-2" vertex="1">
          <mxGeometry y="26" width="170" height="124" as="geometry" />
        </mxCell>
        <mxCell id="r4ibEJz4Eycf6nJenLvt-4" value="" style="line;strokeWidth=1;fillColor=none;align=left;verticalAlign=middle;spacingTop=-1;spacingLeft=3;spacingRight=3;rotatable=0;labelPosition=right;points=[];portConstraint=eastwest;strokeColor=inherit;" parent="r4ibEJz4Eycf6nJenLvt-2" vertex="1">
          <mxGeometry y="150" width="170" height="8" as="geometry" />
        </mxCell>
        <mxCell id="r4ibEJz4Eycf6nJenLvt-12" value="" style="edgeStyle=entityRelationEdgeStyle;fontSize=12;html=1;endArrow=ERmandOne;startArrow=ERmandOne;rounded=0;" parent="l7b9y4i5OmydfN4GE81i-6" source="Z-t9zzkmpwM4j7tZnlFa-31" target="Z-t9zzkmpwM4j7tZnlFa-15" edge="1">
          <mxGeometry width="100" height="100" relative="1" as="geometry">
            <mxPoint x="670" y="590" as="sourcePoint" />
            <mxPoint x="770" y="490" as="targetPoint" />
          </mxGeometry>
        </mxCell>
        <mxCell id="r4ibEJz4Eycf6nJenLvt-13" value="" style="edgeStyle=entityRelationEdgeStyle;fontSize=12;html=1;endArrow=ERmandOne;startArrow=ERmandOne;rounded=0;" parent="l7b9y4i5OmydfN4GE81i-6" source="8IsV2VG3H375RGorvR2R-1" target="Z-t9zzkmpwM4j7tZnlFa-16" edge="1">
          <mxGeometry width="100" height="100" relative="1" as="geometry">
            <mxPoint x="845" y="870" as="sourcePoint" />
            <mxPoint x="945" y="870" as="targetPoint" />
          </mxGeometry>
        </mxCell>
        <mxCell id="r4ibEJz4Eycf6nJenLvt-14" value="" style="edgeStyle=entityRelationEdgeStyle;fontSize=12;html=1;endArrow=ERmandOne;startArrow=ERmandOne;rounded=0;" parent="l7b9y4i5OmydfN4GE81i-6" source="8IsV2VG3H375RGorvR2R-46" target="Z-t9zzkmpwM4j7tZnlFa-16" edge="1">
          <mxGeometry width="100" height="100" relative="1" as="geometry">
            <mxPoint x="1200" y="999" as="sourcePoint" />
            <mxPoint x="1140" y="713" as="targetPoint" />
          </mxGeometry>
        </mxCell>
        <mxCell id="r4ibEJz4Eycf6nJenLvt-16" value="" style="edgeStyle=entityRelationEdgeStyle;fontSize=12;html=1;endArrow=ERoneToMany;startArrow=ERmandOne;rounded=0;" parent="l7b9y4i5OmydfN4GE81i-6" source="8IsV2VG3H375RGorvR2R-46" target="8IsV2VG3H375RGorvR2R-50" edge="1">
          <mxGeometry width="100" height="100" relative="1" as="geometry">
            <mxPoint x="1550" y="820" as="sourcePoint" />
            <mxPoint x="1650" y="720" as="targetPoint" />
          </mxGeometry>
        </mxCell>
        <mxCell id="r4ibEJz4Eycf6nJenLvt-18" value="Use" style="endArrow=open;endSize=12;dashed=1;html=1;rounded=0;" parent="l7b9y4i5OmydfN4GE81i-6" source="Z-t9zzkmpwM4j7tZnlFa-10" target="r4ibEJz4Eycf6nJenLvt-17" edge="1">
          <mxGeometry width="160" relative="1" as="geometry">
            <mxPoint x="1260" y="460" as="sourcePoint" />
            <mxPoint x="1420" y="460" as="targetPoint" />
          </mxGeometry>
        </mxCell>
        <mxCell id="l7b9y4i5OmydfN4GE81i-7" value="Use" style="endArrow=open;endSize=12;dashed=1;html=1;rounded=0;" parent="1" source="8IsV2VG3H375RGorvR2R-8" target="8IsV2VG3H375RGorvR2R-28" edge="1">
          <mxGeometry width="160" relative="1" as="geometry">
            <mxPoint x="10" y="1770" as="sourcePoint" />
            <mxPoint x="280" y="1770" as="targetPoint" />
          </mxGeometry>
        </mxCell>
        <mxCell id="l7b9y4i5OmydfN4GE81i-8" value="Use" style="endArrow=open;endSize=12;dashed=1;html=1;rounded=0;" parent="1" source="8IsV2VG3H375RGorvR2R-12" target="8IsV2VG3H375RGorvR2R-32" edge="1">
          <mxGeometry width="160" relative="1" as="geometry">
            <mxPoint x="40" y="2250" as="sourcePoint" />
            <mxPoint x="310" y="2250" as="targetPoint" />
          </mxGeometry>
        </mxCell>
        <mxCell id="l7b9y4i5OmydfN4GE81i-9" value="Use" style="endArrow=open;endSize=12;dashed=1;html=1;rounded=0;" parent="1" source="8IsV2VG3H375RGorvR2R-16" target="8IsV2VG3H375RGorvR2R-36" edge="1">
          <mxGeometry width="160" relative="1" as="geometry">
            <mxPoint x="20" y="3182" as="sourcePoint" />
            <mxPoint x="290" y="3182" as="targetPoint" />
          </mxGeometry>
        </mxCell>
        <mxCell id="l7b9y4i5OmydfN4GE81i-10" value="Use" style="endArrow=open;endSize=12;dashed=1;html=1;rounded=0;" parent="1" source="8IsV2VG3H375RGorvR2R-20" target="8IsV2VG3H375RGorvR2R-40" edge="1">
          <mxGeometry width="160" relative="1" as="geometry">
            <mxPoint x="10" y="3552" as="sourcePoint" />
            <mxPoint x="280" y="3552" as="targetPoint" />
          </mxGeometry>
        </mxCell>
        <mxCell id="l7b9y4i5OmydfN4GE81i-11" value="&lt;font style=&quot;font-size: 25px;&quot;&gt;Use&lt;/font&gt;" style="endArrow=open;endSize=12;dashed=1;html=1;rounded=0;entryX=0.504;entryY=0.998;entryDx=0;entryDy=0;entryPerimeter=0;" parent="1" source="8IsV2VG3H375RGorvR2R-7" target="8IsV2VG3H375RGorvR2R-6" edge="1">
          <mxGeometry width="160" relative="1" as="geometry">
            <mxPoint x="170" y="850" as="sourcePoint" />
            <mxPoint x="130" y="800" as="targetPoint" />
          </mxGeometry>
        </mxCell>
        <mxCell id="l7b9y4i5OmydfN4GE81i-12" value="Use" style="endArrow=open;endSize=12;dashed=1;html=1;rounded=0;" parent="1" source="8IsV2VG3H375RGorvR2R-25" target="Z-t9zzkmpwM4j7tZnlFa-7" edge="1">
          <mxGeometry width="160" relative="1" as="geometry">
            <mxPoint x="700" y="891" as="sourcePoint" />
            <mxPoint x="704" y="770" as="targetPoint" />
            <Array as="points">
              <mxPoint x="3075" y="1110" />
            </Array>
          </mxGeometry>
        </mxCell>
        <mxCell id="l7b9y4i5OmydfN4GE81i-13" value="Use" style="endArrow=open;endSize=12;dashed=1;html=1;rounded=0;" parent="1" source="8IsV2VG3H375RGorvR2R-29" target="Z-t9zzkmpwM4j7tZnlFa-8" edge="1">
          <mxGeometry width="160" relative="1" as="geometry">
            <mxPoint x="810" y="1350" as="sourcePoint" />
            <mxPoint x="1740" y="1569" as="targetPoint" />
            <Array as="points">
              <mxPoint x="1160" y="1870" />
              <mxPoint x="1160" y="1270" />
            </Array>
          </mxGeometry>
        </mxCell>
        <mxCell id="l7b9y4i5OmydfN4GE81i-14" value="Use" style="endArrow=open;endSize=12;dashed=1;html=1;rounded=0;" parent="1" source="8IsV2VG3H375RGorvR2R-32" target="Z-t9zzkmpwM4j7tZnlFa-7" edge="1">
          <mxGeometry width="160" relative="1" as="geometry">
            <mxPoint x="827" y="1686" as="sourcePoint" />
            <mxPoint x="1757" y="1784" as="targetPoint" />
            <Array as="points">
              <mxPoint x="1220" y="2290" />
              <mxPoint x="1230" y="1330" />
            </Array>
          </mxGeometry>
        </mxCell>
        <mxCell id="l7b9y4i5OmydfN4GE81i-15" value="Use" style="endArrow=open;endSize=12;dashed=1;html=1;rounded=0;" parent="1" source="8IsV2VG3H375RGorvR2R-36" target="Z-t9zzkmpwM4j7tZnlFa-10" edge="1">
          <mxGeometry width="160" relative="1" as="geometry">
            <mxPoint x="820" y="2070" as="sourcePoint" />
            <mxPoint x="1757" y="2050" as="targetPoint" />
            <Array as="points">
              <mxPoint x="1310" y="2660" />
              <mxPoint x="1320" y="1410" />
            </Array>
          </mxGeometry>
        </mxCell>
        <mxCell id="l7b9y4i5OmydfN4GE81i-16" value="Use" style="endArrow=open;endSize=12;dashed=1;html=1;rounded=0;entryX=0.001;entryY=0.792;entryDx=0;entryDy=0;entryPerimeter=0;" parent="1" source="8IsV2VG3H375RGorvR2R-40" target="Z-t9zzkmpwM4j7tZnlFa-10" edge="1">
          <mxGeometry width="160" relative="1" as="geometry">
            <mxPoint x="890" y="2398" as="sourcePoint" />
            <mxPoint x="1820" y="2250" as="targetPoint" />
            <Array as="points">
              <mxPoint x="1870" y="3050" />
              <mxPoint x="1890" y="1440" />
            </Array>
          </mxGeometry>
        </mxCell>
        <mxCell id="CQQq0diZU_aCvAsW7tsd-1" value="&lt;font style=&quot;font-size: 16px;&quot;&gt;ItemData&lt;/font&gt;" style="swimlane;fontStyle=1;align=center;verticalAlign=top;childLayout=stackLayout;horizontal=1;startSize=26;horizontalStack=0;resizeParent=1;resizeParentMax=0;resizeLast=0;collapsible=1;marginBottom=0;whiteSpace=wrap;html=1;" parent="1" vertex="1">
          <mxGeometry x="-490" y="450" width="430" height="158" as="geometry" />
        </mxCell>
        <mxCell id="CQQq0diZU_aCvAsW7tsd-2" value="&lt;div style=&quot;font-size: 26px;&quot;&gt;&lt;font style=&quot;font-size: 26px;&quot;&gt;+ name : string&lt;/font&gt;&lt;/div&gt;&lt;div style=&quot;font-size: 26px;&quot;&gt;&lt;font style=&quot;font-size: 26px;&quot;&gt;+ price : int&lt;/font&gt;&lt;/div&gt;" style="text;strokeColor=none;fillColor=none;align=left;verticalAlign=top;spacingLeft=4;spacingRight=4;overflow=hidden;rotatable=0;points=[[0,0.5],[1,0.5]];portConstraint=eastwest;whiteSpace=wrap;html=1;" parent="CQQq0diZU_aCvAsW7tsd-1" vertex="1">
          <mxGeometry y="26" width="430" height="124" as="geometry" />
        </mxCell>
        <mxCell id="CQQq0diZU_aCvAsW7tsd-3" value="" style="line;strokeWidth=1;fillColor=none;align=left;verticalAlign=middle;spacingTop=-1;spacingLeft=3;spacingRight=3;rotatable=0;labelPosition=right;points=[];portConstraint=eastwest;strokeColor=inherit;" parent="CQQq0diZU_aCvAsW7tsd-1" vertex="1">
          <mxGeometry y="150" width="430" height="8" as="geometry" />
        </mxCell>
        <mxCell id="LNHgSJLYLeoDNgFpn_Ya-1" value="Use" style="endArrow=open;endSize=12;dashed=1;html=1;rounded=0;" parent="1" source="Z-t9zzkmpwM4j7tZnlFa-3" target="3Hg6Lr5lSiExu5epUFpC-2" edge="1">
          <mxGeometry width="160" relative="1" as="geometry">
            <mxPoint x="-50" y="1490" as="sourcePoint" />
            <mxPoint x="260" y="1507.3535911602212" as="targetPoint" />
          </mxGeometry>
        </mxCell>
        <mxCell id="uMOMPVFnKg3N90YCqqPd-1" value="&lt;font style=&quot;font-size: 16px;&quot;&gt;JwtToken&lt;/font&gt;" style="swimlane;fontStyle=1;align=center;verticalAlign=top;childLayout=stackLayout;horizontal=1;startSize=26;horizontalStack=0;resizeParent=1;resizeParentMax=0;resizeLast=0;collapsible=1;marginBottom=0;whiteSpace=wrap;html=1;" parent="1" vertex="1">
          <mxGeometry x="450" y="240" width="430" height="158" as="geometry" />
        </mxCell>
        <mxCell id="uMOMPVFnKg3N90YCqqPd-2" value="&lt;div&gt;&lt;font style=&quot;font-size: 26px;&quot;&gt;+&amp;nbsp;Token : string&lt;/font&gt;&lt;/div&gt;" style="text;strokeColor=none;fillColor=none;align=left;verticalAlign=top;spacingLeft=4;spacingRight=4;overflow=hidden;rotatable=0;points=[[0,0.5],[1,0.5]];portConstraint=eastwest;whiteSpace=wrap;html=1;" parent="uMOMPVFnKg3N90YCqqPd-1" vertex="1">
          <mxGeometry y="26" width="430" height="124" as="geometry" />
        </mxCell>
        <mxCell id="uMOMPVFnKg3N90YCqqPd-3" value="" style="line;strokeWidth=1;fillColor=none;align=left;verticalAlign=middle;spacingTop=-1;spacingLeft=3;spacingRight=3;rotatable=0;labelPosition=right;points=[];portConstraint=eastwest;strokeColor=inherit;" parent="uMOMPVFnKg3N90YCqqPd-1" vertex="1">
          <mxGeometry y="150" width="430" height="8" as="geometry" />
        </mxCell>
        <mxCell id="3Hg6Lr5lSiExu5epUFpC-2" value="&lt;font style=&quot;font-size: 16px;&quot;&gt;JVTService&lt;/font&gt;" style="swimlane;fontStyle=1;align=center;verticalAlign=top;childLayout=stackLayout;horizontal=1;startSize=26;horizontalStack=0;resizeParent=1;resizeParentMax=0;resizeLast=0;collapsible=1;marginBottom=0;whiteSpace=wrap;html=1;" parent="1" vertex="1">
          <mxGeometry x="140" y="1450" width="640" height="290" as="geometry" />
        </mxCell>
        <mxCell id="3Hg6Lr5lSiExu5epUFpC-3" value="&lt;div&gt;&lt;font style=&quot;font-size: 26px;&quot;&gt;-_options :&amp;nbsp;IOptions&amp;lt;JwtAuthOptions&amp;gt;&lt;/font&gt;&lt;/div&gt;" style="text;strokeColor=none;fillColor=none;align=left;verticalAlign=top;spacingLeft=4;spacingRight=4;overflow=hidden;rotatable=0;points=[[0,0.5],[1,0.5]];portConstraint=eastwest;whiteSpace=wrap;html=1;" parent="3Hg6Lr5lSiExu5epUFpC-2" vertex="1">
          <mxGeometry y="26" width="640" height="124" as="geometry" />
        </mxCell>
        <mxCell id="3Hg6Lr5lSiExu5epUFpC-4" value="" style="line;strokeWidth=1;fillColor=none;align=left;verticalAlign=middle;spacingTop=-1;spacingLeft=3;spacingRight=3;rotatable=0;labelPosition=right;points=[];portConstraint=eastwest;strokeColor=inherit;" parent="3Hg6Lr5lSiExu5epUFpC-2" vertex="1">
          <mxGeometry y="150" width="640" height="8" as="geometry" />
        </mxCell>
        <mxCell id="3Hg6Lr5lSiExu5epUFpC-5" value="&lt;font style=&quot;font-size: 26px;&quot;&gt;+JwtService(option : IOptions&amp;lt;JwtAuthOptions&amp;gt;)&lt;br&gt;+GenerateToken(uid : Guid, login : string) : string&amp;nbsp;&lt;br&gt;&lt;/font&gt;" style="text;strokeColor=none;fillColor=none;align=left;verticalAlign=top;spacingLeft=4;spacingRight=4;overflow=hidden;rotatable=0;points=[[0,0.5],[1,0.5]];portConstraint=eastwest;whiteSpace=wrap;html=1;" parent="3Hg6Lr5lSiExu5epUFpC-2" vertex="1">
          <mxGeometry y="158" width="640" height="132" as="geometry" />
        </mxCell>
        <mxCell id="l_JtTMun2HrZ3VxLcvV9-1" value="&lt;font style=&quot;font-size: 16px;&quot;&gt;ItemStorageService&lt;/font&gt;" style="swimlane;fontStyle=1;align=center;verticalAlign=top;childLayout=stackLayout;horizontal=1;startSize=26;horizontalStack=0;resizeParent=1;resizeParentMax=0;resizeLast=0;collapsible=1;marginBottom=0;whiteSpace=wrap;html=1;" parent="1" vertex="1">
          <mxGeometry x="140" y="3270" width="640" height="290" as="geometry" />
        </mxCell>
        <mxCell id="l_JtTMun2HrZ3VxLcvV9-2" value="&lt;div style=&quot;font-size: 26px;&quot;&gt;&lt;font style=&quot;border-color: var(--border-color); font-size: 26px;&quot;&gt;-_context :&amp;nbsp;&lt;/font&gt;OrbitiumDataBaseContext&lt;br&gt;&lt;/div&gt;" style="text;strokeColor=none;fillColor=none;align=left;verticalAlign=top;spacingLeft=4;spacingRight=4;overflow=hidden;rotatable=0;points=[[0,0.5],[1,0.5]];portConstraint=eastwest;whiteSpace=wrap;html=1;" parent="l_JtTMun2HrZ3VxLcvV9-1" vertex="1">
          <mxGeometry y="26" width="640" height="124" as="geometry" />
        </mxCell>
        <mxCell id="l_JtTMun2HrZ3VxLcvV9-3" value="" style="line;strokeWidth=1;fillColor=none;align=left;verticalAlign=middle;spacingTop=-1;spacingLeft=3;spacingRight=3;rotatable=0;labelPosition=right;points=[];portConstraint=eastwest;strokeColor=inherit;" parent="l_JtTMun2HrZ3VxLcvV9-1" vertex="1">
          <mxGeometry y="150" width="640" height="8" as="geometry" />
        </mxCell>
        <mxCell id="l_JtTMun2HrZ3VxLcvV9-4" value="&lt;font style=&quot;font-size: 26px;&quot;&gt;+LeaderBoardService(context : OrbitiumDataBaseContext)&lt;br&gt;+GetItems() : List&amp;lt;ItemData&amp;gt;&lt;br&gt;&lt;/font&gt;" style="text;strokeColor=none;fillColor=none;align=left;verticalAlign=top;spacingLeft=4;spacingRight=4;overflow=hidden;rotatable=0;points=[[0,0.5],[1,0.5]];portConstraint=eastwest;whiteSpace=wrap;html=1;" parent="l_JtTMun2HrZ3VxLcvV9-1" vertex="1">
          <mxGeometry y="158" width="640" height="132" as="geometry" />
        </mxCell>
        <mxCell id="l_JtTMun2HrZ3VxLcvV9-9" value="&lt;font style=&quot;font-size: 16px;&quot;&gt;ItemStorageController&lt;/font&gt;" style="swimlane;fontStyle=1;align=center;verticalAlign=top;childLayout=stackLayout;horizontal=1;startSize=26;horizontalStack=0;resizeParent=1;resizeParentMax=0;resizeLast=0;collapsible=1;marginBottom=0;whiteSpace=wrap;html=1;" parent="1" vertex="1">
          <mxGeometry x="-605" y="3110" width="560" height="270" as="geometry" />
        </mxCell>
        <mxCell id="l_JtTMun2HrZ3VxLcvV9-10" value="&lt;div&gt;&lt;font style=&quot;font-size: 26px;&quot;&gt;- _storageService :&amp;nbsp;ItemStorageService&amp;nbsp;&lt;/font&gt;&lt;/div&gt;&lt;span style=&quot;&quot;&gt;&lt;span style=&quot;white-space: pre;&quot;&gt;&amp;nbsp;&amp;nbsp;&amp;nbsp;&amp;nbsp;&lt;/span&gt;&lt;/span&gt;&lt;br&gt;&lt;div&gt;&lt;span style=&quot;background-color: initial;&quot;&gt;&lt;font style=&quot;font-size: 26px;&quot;&gt;&amp;nbsp;&lt;/font&gt;&lt;/span&gt;&lt;/div&gt;" style="text;strokeColor=none;fillColor=none;align=left;verticalAlign=top;spacingLeft=4;spacingRight=4;overflow=hidden;rotatable=0;points=[[0,0.5],[1,0.5]];portConstraint=eastwest;whiteSpace=wrap;html=1;" parent="l_JtTMun2HrZ3VxLcvV9-9" vertex="1">
          <mxGeometry y="26" width="560" height="124" as="geometry" />
        </mxCell>
        <mxCell id="l_JtTMun2HrZ3VxLcvV9-11" value="" style="line;strokeWidth=1;fillColor=none;align=left;verticalAlign=middle;spacingTop=-1;spacingLeft=3;spacingRight=3;rotatable=0;labelPosition=right;points=[];portConstraint=eastwest;strokeColor=inherit;" parent="l_JtTMun2HrZ3VxLcvV9-9" vertex="1">
          <mxGeometry y="150" width="560" height="8" as="geometry" />
        </mxCell>
        <mxCell id="l_JtTMun2HrZ3VxLcvV9-12" value="&lt;font style=&quot;font-size: 24px;&quot;&gt;+ItemStorageController(service : ItemStorageService)&lt;br&gt;+GetItemsData() : ActionResult&amp;lt;List&amp;lt;ItemData&amp;gt;&amp;gt;&lt;br&gt;&lt;/font&gt;" style="text;strokeColor=none;fillColor=none;align=left;verticalAlign=top;spacingLeft=4;spacingRight=4;overflow=hidden;rotatable=0;points=[[0,0.5],[1,0.5]];portConstraint=eastwest;whiteSpace=wrap;html=1;" parent="l_JtTMun2HrZ3VxLcvV9-9" vertex="1">
          <mxGeometry y="158" width="560" height="112" as="geometry" />
        </mxCell>
        <mxCell id="l_JtTMun2HrZ3VxLcvV9-13" value="Use" style="endArrow=open;endSize=12;dashed=1;html=1;rounded=0;" parent="1" source="l_JtTMun2HrZ3VxLcvV9-9" target="l_JtTMun2HrZ3VxLcvV9-2" edge="1">
          <mxGeometry width="160" relative="1" as="geometry">
            <mxPoint x="-40" y="3360" as="sourcePoint" />
            <mxPoint x="140" y="3390" as="targetPoint" />
          </mxGeometry>
        </mxCell>
        <mxCell id="nIdZgjhjXAzS3Ue-dXYV-1" value="Use" style="endArrow=open;endSize=12;dashed=1;html=1;rounded=0;entryX=0.001;entryY=0.999;entryDx=0;entryDy=0;entryPerimeter=0;" edge="1" parent="1" source="l_JtTMun2HrZ3VxLcvV9-2" target="Z-t9zzkmpwM4j7tZnlFa-10">
          <mxGeometry width="160" relative="1" as="geometry">
            <mxPoint x="840" y="3393" as="sourcePoint" />
            <mxPoint x="2920" y="1770" as="targetPoint" />
            <Array as="points">
              <mxPoint x="1930" y="3397" />
              <mxPoint x="2000" y="1480" />
            </Array>
          </mxGeometry>
        </mxCell>
      </root>
    </mxGraphModel>
  </diagram>
</mxfile>
